PathFileType	4	(X/Y/Z)	C:\Users\Basilio\Documents\Thesis Gigler\squatting_fais\c3dfiles\075\SLS_front_pre5\markers_experimental.trc
DataRate	CameraRate	NumFrames	NumMarkers	Units	OrigDataRate	OrigDataStartFrame	OrigNumFrames
200.000000	200.000000	4	61	mm	200.000000	170	1363
Frame#	Time	FHD			LBHD			C7			T10			CLAV			LSHO			LUUPA			LMUPA			LDUPA			LLEP			LMEP			LRAD			LUL			LRFIN			RSHO			RUPA1			RMUPA			RDUPA			RLEP			RMEP			RRAD			RUL			RUFIN			RASI			USACR			LSACR			RSACR			LTHI1			LTHI2			LTHI3			LTHI4			LLFC			LMFC			LTIB1			LTIB2			LTIB3			LTIB4			LLMAL			LMMAL			LHEE			LMT1			LMT2			LMT5			RTHI			RTHI2			RTHI3			RTHI4			RLFC			RMFC			RTIB1			RTIB2			RTIB3			RTIB4			RLMAL			RMMAL			RHEE			RMT1			RMT2			RMT5			LASI			RBHD			
		X1	Y1	Z1	X2	Y2	Z2	X3	Y3	Z3	X4	Y4	Z4	X5	Y5	Z5	X6	Y6	Z6	X7	Y7	Z7	X8	Y8	Z8	X9	Y9	Z9	X10	Y10	Z10	X11	Y11	Z11	X12	Y12	Z12	X13	Y13	Z13	X14	Y14	Z14	X15	Y15	Z15	X16	Y16	Z16	X17	Y17	Z17	X18	Y18	Z18	X19	Y19	Z19	X20	Y20	Z20	X21	Y21	Z21	X22	Y22	Z22	X23	Y23	Z23	X24	Y24	Z24	X25	Y25	Z25	X26	Y26	Z26	X27	Y27	Z27	X28	Y28	Z28	X29	Y29	Z29	X30	Y30	Z30	X31	Y31	Z31	X32	Y32	Z32	X33	Y33	Z33	X34	Y34	Z34	X35	Y35	Z35	X36	Y36	Z36	X37	Y37	Z37	X38	Y38	Z38	X39	Y39	Z39	X40	Y40	Z40	X41	Y41	Z41	X42	Y42	Z42	X43	Y43	Z43	X44	Y44	Z44	X45	Y45	Z45	X46	Y46	Z46	X47	Y47	Z47	X48	Y48	Z48	X49	Y49	Z49	X50	Y50	Z50	X51	Y51	Z51	X52	Y52	Z52	X53	Y53	Z53	X54	Y54	Z54	X55	Y55	Z55	X56	Y56	Z56	X57	Y57	Z57	X58	Y58	Z58	X59	Y59	Z59	X60	Y60	Z60	X61	Y61	Z61	

171	0.85	-312.7035827636719	1710.844970703125	-811.6176757812502	-445.2401123046876	1580.742919921875	-884.1108398437502	-471.3175659179689	1462.534057617188	-829.5757446289065	-460.4762573242189	1139.640625	-832.9675292968752	-324.7889709472657	1413.6494140625	-815.0806884765627	-346.9851684570313	1450.938842773438	-957.6977539062502	-187.6031341552735	1351.171020507813	-1034.042602539063	-162.1754302978516	1368.790405273438	-994.942077636719	-122.4349136352539	1331.310913085938	-1021.310668945313	-47.87551879882813	1307.459106445313	-1002.386840820313	-80.05794525146486	1244.442260742188	-951.9096679687502	nan	nan	nan	185.4313354492188	1294.84814453125	-896.4763183593752	180.2620391845703	1334.578247070313	-799.1848754882815	-372.1749267578126	1441.579956054688	-673.4035034179689	-232.6042785644532	1331.052978515625	-573.9628295898439	-195.6794891357422	1352.919311523438	-597.5679321289064	-165.6078186035157	1310.93701171875	-565.0322265625001	-95.66489410400392	1298.178588867188	-569.8942871093751	-98.66385650634768	1230.704711914063	-609.0938110351564	120.9204330444336	1330.52587890625	-743.3529663085939	142.8661041259766	1323.390747070313	-668.4772949218751	197.125961303711	1357.950927734375	-767.7048950195314	-286.2342834472657	987.972595214844	-700.1965332031251	-445.0858459472657	1042.080078125	-834.9787597656252	-447.2382812500001	1009.388061523438	-862.0803833007815	-449.2197570800782	1011.594604492188	-804.6900024414065	-295.0721435546876	748.1374511718751	-1041.196533203125	-254.8374481201172	674.0982666015626	-1048.4833984375	-211.0390930175782	681.9706420898439	-1026.99267578125	-275.5882263183594	617.6695556640626	-1050.235717773438	-273.5096435546876	509.7139282226564	-1057.5869140625	-238.2307281494141	479.2536621093751	-934.4058227539065	-224.9769897460938	382.1446228027344	-1042.467407226563	-287.2033386230469	354.6355590820313	-1095.585083007813	-246.6072540283204	342.2749023437501	-1078.57470703125	-256.7007141113282	259.3890380859376	-1061.146118164063	-343.9500427246094	127.6730499267578	-1099.505249023438	-313.8197937011719	129.9894256591797	-1017.960693359375	-401.9858703613282	94.06863403320314	-1062.265380859375	-197.251693725586	51.84143066406251	-1036.815673828125	-192.8623809814454	56.95951461791994	-1085.969116210938	-233.0586090087891	45.68264770507813	-1137.38720703125	-336.8580017089844	777.9969482421877	-642.7460937500001	-295.0709533691407	728.3398437500001	-646.9890136718751	-263.7490844726563	737.0083007812501	-655.8985595703126	-316.2185363769532	645.7784423828126	-660.8174438476564	-320.3920288085938	492.6734924316407	-698.1900024414064	-280.5942687988282	494.1695251464845	-820.9170532226565	-278.5011596679688	347.6638793945313	-774.785339355469	-336.1263732910157	270.5494689941407	-724.8839721679689	-299.1712646484376	264.9857788085938	-756.7343750000001	-313.5708007812501	225.353256225586	-796.7268676757815	-395.9861755371095	111.4440383911133	-773.335144042969	-360.5481872558594	137.1893463134766	-851.0173339843752	-446.7508544921876	93.1013870239258	-835.3015747070315	-241.6462860107422	56.75459671020509	-823.8950805664065	-246.894271850586	54.989315032959	-781.521911621094	-289.6625671386719	34.72916412353516	-733.7704467773439	-280.7297363281251	980.7202758789065	-955.9534301757815	nan	nan	nan	
172	0.855	-312.8948669433594	1710.777221679688	-811.0692138671877	-445.4726562500001	1580.95751953125	-883.5103759765627	-471.5599670410157	1462.600708007813	-828.9634399414065	-460.9340209960939	1139.611206054688	-832.1661376953127	-325.0402221679688	1413.680419921875	-814.440612792969	-347.2969055175782	1450.952270507813	-957.0203857421877	-188.059066772461	1351.625366210938	-1033.111694335938	-162.4819946289063	1369.255981445313	-994.0535278320315	-122.5966262817383	1331.8564453125	-1020.392395019531	-48.03808975219728	1308.06201171875	-1001.383239746094	-80.03659820556642	1244.947875976563	-950.7635498046877	nan	nan	nan	185.3556518554688	1295.825561523438	-895.4351196289065	180.2294464111328	1335.5986328125	-798.5948486328127	-372.4294128417969	1441.72900390625	-672.7162475585939	-232.841537475586	1331.727783203125	-573.0499877929689	-195.9459686279297	1353.701416015625	-596.7818603515626	-165.6948852539063	1311.783447265625	-564.1862182617189	-95.78260803222658	1299.208984375	-569.1738891601564	-98.64240264892581	1231.605102539063	-608.4843750000001	120.6057357788086	1331.996459960938	-742.4836425781251	142.7605133056641	1324.768920898438	-667.5419921875001	196.9554138183594	1359.185180664063	-766.8900756835939	-286.5374450683594	987.899597167969	-699.4280395507814	-445.605194091797	1042.1328125	-834.1133422851565	-447.800018310547	1009.410217285156	-861.1711425781252	-449.6868286132814	1011.504516601563	-803.7924804687502	-294.0233154296876	748.3218994140626	-1040.259765625	-254.1847534179688	675.0673217773439	-1047.734619140625	-209.8622741699219	682.8424682617189	-1025.766845703125	-273.5745239257813	618.1647949218751	-1049.530151367188	-271.1686096191407	510.3193969726564	-1057.146118164063	-236.0554504394532	479.8356323242189	-933.9685058593752	-222.5609130859376	382.4424743652344	-1041.716430664063	-285.3880004882813	355.2266845703126	-1095.24853515625	-244.7875213623047	342.8252563476563	-1078.0634765625	-255.8079681396485	260.0291137695313	-1061.073852539063	-343.3045043945313	129.0311279296875	-1098.829956054688	-313.0484619140626	130.9590148925782	-1017.451416015625	-401.7984313964845	95.48699188232423	-1061.50146484375	-196.9230041503907	52.12025451660158	-1036.553466796875	-192.5766906738282	57.35483932495119	-1085.800415039063	-233.0489501953126	46.32563781738282	-1136.930786132813	-337.3798217773438	777.7716064453127	-642.1290893554689	-295.4297180175782	728.2031250000001	-646.3278808593751	-264.0982666015626	736.9718017578126	-655.0760498046876	-316.5065917968751	645.6614379882814	-660.0908813476564	-320.6161193847657	492.5641174316407	-697.6170043945314	-280.6473999023438	494.025360107422	-820.3513793945315	-278.6119384765626	347.5461425781251	-774.2523193359377	-336.3579101562501	270.3311157226563	-724.5404052734376	-299.1579589843751	264.9344482421876	-756.3027343750001	-313.5830383300782	225.1858367919922	-796.2830200195315	-396.0782165527345	111.3589706420899	-773.2446899414065	-360.5551147460938	137.1380004882813	-850.7637939453127	-446.8175659179689	93.11439514160158	-835.2216796875002	-241.7267303466797	56.88869094848634	-823.841979980469	-247.6418762207032	54.58482742309572	-782.1922607421877	-289.6804504394532	34.69202423095704	-733.7034301757814	-281.4508972167969	980.8146972656252	-955.2415161132815	nan	nan	nan	
173	0.86	-313.0935058593751	1710.851318359375	-810.5781860351565	-445.6474609375001	1580.949462890625	-882.7376098632815	-471.7748413085939	1462.641235351563	-828.1577758789065	-461.3009033203126	1139.635375976563	-831.261657714844	-324.7377319335938	1413.641967773438	-813.447448730469	-347.5596313476563	1450.88232421875	-956.441345214844	-188.2185363769532	1352.2138671875	-1032.223510742188	-162.8152923583985	1369.641723632813	-992.9707641601565	-122.9489440917969	1332.475463867188	-1019.162902832031	-48.21652221679689	1308.626220703125	-1000.27978515625	-80.07573699951173	1245.464965820313	-949.7971191406252	nan	nan	nan	185.2244262695313	1296.634643554688	-894.397644042969	180.7407836914063	1336.825073242188	-797.3675537109377	-372.6666564941407	1441.782958984375	-672.1892089843751	-233.0818786621094	1332.051513671875	-572.4052734375001	-196.2274017333985	1354.33544921875	-595.9618530273439	-165.8871612548828	1312.53125	-563.4119873046876	-95.77147674560548	1300.30029296875	-568.2373046875001	-98.59152984619143	1232.63671875	-607.5881347656251	120.7555923461914	1333.09423828125	-741.4644165039064	142.7623596191407	1326.269653320313	-666.4715576171876	196.9417419433594	1360.285400390625	-766.0376586914064	-286.9669494628907	987.8205566406252	-698.7593994140626	-446.1411437988282	1042.118896484375	-833.1774902343752	-448.3120422363282	1009.347045898438	-860.3098754882815	-450.2257385253907	1011.4296875	-802.9520263671877	-293.0929260253907	748.6383056640626	-1039.656982421875	-251.8824005126954	675.4059448242189	-1046.454956054688	-208.2082061767579	683.6595458984376	-1024.4794921875	-272.6821594238282	618.7175292968751	-1048.984375	-268.3771972656251	510.9171142578126	-1056.551879882813	-234.0159454345704	480.5213317871095	-933.4321289062502	-221.0171813964844	383.0335693359376	-1041.297607421875	-283.3767089843751	355.8201599121094	-1094.587524414063	-242.9799804687501	343.4399719238282	-1077.499633789063	-254.3573760986329	260.6417846679688	-1060.47705078125	-342.8173828125001	130.0016174316407	-1098.192993164063	-312.2672424316407	131.8907165527344	-1016.825439453125	-401.1863403320314	96.90882110595706	-1060.403686523438	-196.3955383300782	52.49456787109376	-1036.310302734375	-192.2184448242188	57.95923614501955	-1085.52783203125	-232.9011383056641	46.79220581054688	-1136.403076171875	-337.7674255371094	777.7156372070315	-641.5308227539064	-295.7306823730469	728.0405273437501	-645.4101562500001	-264.4843444824219	736.8734130859376	-654.3176269531251	-316.8299560546876	645.4739379882814	-659.4984130859376	-320.8003845214844	492.4089355468751	-697.1607055664064	-280.7993164062501	494.0942993164064	-819.636901855469	-278.7048645019532	347.5036010742188	-773.6612548828127	-336.4852600097657	270.3077392578126	-724.0628662109376	-299.0246276855469	264.7858276367188	-755.5678710937501	-313.5765075683594	225.1155548095704	-795.8110351562502	-396.1340942382814	111.2798690795899	-773.0840454101565	-360.4774169921876	137.1930847167969	-850.4529418945315	-446.8336486816407	93.11441802978517	-835.1357421875002	-241.6838684082032	56.889949798584	-823.6951293945315	-246.9192810058594	54.88475799560548	-781.4270629882815	-289.6679077148438	34.54942703247071	-733.6350708007814	-282.2757873535157	980.8522949218752	-954.6218872070315	nan	nan	nan	
174	0.865	-313.2811584472657	1710.867065429688	-810.0525512695315	-445.8204345703126	1580.642333984375	-882.173767089844	-472.1045227050782	1462.6689453125	-827.4768066406252	-461.9124450683595	1139.655639648438	-830.4520263671877	-325.5621032714844	1413.751342773438	-813.1511840820315	-347.9873352050782	1450.713500976563	-956.1904907226565	-188.4693908691407	1352.619506835938	-1031.328979492188	-163.162338256836	1369.931396484375	-991.9381103515627	-123.4174041748047	1333.049438476563	-1018.363647460938	-48.4331512451172	1309.179931640625	-999.3413696289065	-80.08794403076173	1245.890991210938	-948.972839355469	nan	nan	nan	185.1813507080078	1297.467407226563	-893.575378417969	180.5320281982422	1336.483276367188	-797.5042724609377	-373.0084228515626	1441.983764648438	-671.6132812500001	-233.3534088134766	1332.798461914063	-571.4756469726564	-196.4191131591797	1355.05078125	-595.0455932617189	-166.0362243652344	1313.339111328125	-562.6069946289064	-95.89698791503908	1301.168823242188	-567.4279785156251	-98.57114410400393	1233.489624023438	-606.7296142578126	120.9785995483399	1333.997192382813	-740.4874267578126	142.7007751464844	1327.650268554688	-665.3829345703126	196.6461029052735	1361.317138671875	-765.0783691406251	-287.3253479003907	987.7161254882815	-698.0742797851564	-446.5410766601564	1042.0234375	-832.3676757812502	-448.8630676269532	1009.401184082031	-859.362731933594	-450.704559326172	1011.439514160156	-802.0213012695315	-292.7868957519532	749.4409790039064	-1039.226806640625	-250.4573211669922	676.0353393554689	-1045.697875976563	-207.1306457519532	684.6325683593751	-1023.470336914063	-269.7387084960938	619.2012329101564	-1048.221069335938	-265.9704284667969	511.5396728515626	-1056.149047851563	-231.6692962646485	481.4035034179689	-932.8338012695315	-218.5490875244141	383.4396362304688	-1040.441772460938	-281.4027709960938	356.4967651367188	-1094.141235351563	-241.0706176757813	344.0607910156251	-1076.8369140625	-252.301010131836	261.2305908203126	-1059.328125	-342.6173400878907	131.2321014404297	-1097.507568359375	-311.2659912109376	132.8828430175782	-1016.012817382813	-400.6488037109376	98.3847351074219	-1059.254272460938	-196.019271850586	52.94099426269533	-1036.10888671875	-191.8124084472657	58.43146896362306	-1085.137939453125	-232.852767944336	47.53303146362305	-1135.896362304688	-338.1160278320313	777.6495361328127	-640.8934326171876	-296.0421447753907	728.0648803710939	-644.7029418945314	-264.9002075195313	736.7511596679689	-653.7434692382814	-317.2196350097657	645.4061889648439	-658.8148803710939	-320.9895629882813	492.2588806152345	-696.5408935546876	-280.6943359375001	493.9830932617189	-819.0258789062502	-278.4021301269532	347.3370666503907	-772.775329589844	-336.6070556640626	270.1998901367188	-723.7125244140626	-299.9584045410157	264.7792663574219	-755.4484252929689	-314.4920349121094	225.1702880859376	-795.9570922851565	-396.2483520507814	111.1211242675782	-772.903259277344	-360.4860839843751	137.2534332275391	-850.1712036132815	-446.8411254882814	93.11090087890626	-835.0454711914065	-241.7550659179688	56.99506759643556	-823.636413574219	-247.7109527587891	54.53025054931642	-782.0911865234377	-289.6256408691407	34.32396316528321	-733.7362060546876	-283.0159301757813	980.9222412109377	-953.985778808594	nan	nan	nan	
